<svg width="24" height="24" viewBox="0 0 24 24" fill="none"
  xmlns="http://www.w3.org/2000/svg">
  <path d="M6.31349 4.61884L8.49709 0.303612C8.5898 0.120404 8.78509 0.012498 8.98953 0.0315151L21.9815 1.24C22.2651 1.26638 22.4694 1.52403 22.4305 1.8062L21.8376 6.10244C21.8013 6.36527 21.5661 6.554 21.3016 6.53243L6.71897 5.34294C6.36501 5.31406 6.15314 4.93571 6.31349 4.61884Z" fill="#ECE41D"/>
  <path d="M1.04838 13.6874L7.16965 1.68894C7.40223 1.23306 6.88091 0.763589 6.45179 1.04248L0.701504 4.77972C0.566251 4.86762 0.481715 5.01538 0.474479 5.17652L0.103492 13.4378C0.0793725 13.9749 0.804043 14.1664 1.04838 13.6874Z" fill="#2B86D9"/>
  <path d="M1.17996 17.6805L0.59971 16.3473C0.539925 16.21 0.544878 16.053 0.613204 15.9197L3.06832 11.1295C3.25954 10.7564 3.79744 10.7701 3.96933 11.1525L8.96834 22.2741C9.17849 22.7417 8.63282 23.185 8.21824 22.8835L1.34436 17.8853C1.27228 17.8329 1.21552 17.7622 1.17996 17.6805Z" fill="#6DB0FF"/>
  <path d="M9.93751 23.2679L8.15489 19.2983C8.00461 18.9636 8.25271 18.5864 8.61948 18.5934C10.9919 18.6386 14.6704 18.7071 14.7572 18.7071C14.8443 18.7071 12.369 21.5346 10.7754 23.3893C10.536 23.6679 10.088 23.603 9.93751 23.2679Z" fill="#2B86D9"/>
  <path d="M20.6162 12.0388L12.6132 22.2505C12.2842 22.6703 12.7532 23.2446 13.2303 23.0062L20.9032 19.1707C20.97 19.1373 21.0285 19.0894 21.0743 19.0304L23.7573 15.5795C23.8996 15.3965 23.8974 15.1398 23.7522 14.9592L21.3994 12.0338C21.1976 11.783 20.8148 11.7854 20.6162 12.0388Z" fill="#ECE41D"/>
</svg>
